<?xml version="1.0" encoding="UTF-8"?>
<svg xmlns="http://www.w3.org/2000/svg" xmlns:xlink="http://www.w3.org/1999/xlink"
     width="444.0" height="241.0" viewBox="0 0 222.0 120.5">
<defs>
</defs>
<rect x="0" y="0" width="222.0" height="120.5" stroke="None" stroke-width="0" fill="#ffffff" />
<rect x="21.0" y="71.0" width="8" height="8" stroke="black" stroke-width="1.2" fill="#f5f5f5" />
<rect x="193.0" y="71.0" width="8" height="8" stroke="black" stroke-width="1.2" fill="#f5f5f5" />
<rect x="168.3" y="75.0" width="11.4" height="25" stroke="black" stroke-width="1.2" fill="#d1d1d1" />
<path d="M168.3,100.0 L179.70000000000002,100.0 L175.9,110.0 L172.10000000000002,110.0 L168.3,100.0 Z" stroke="black" stroke-width="1.2" fill="#d1d1d1" />
<rect x="126.3" y="75.0" width="11.4" height="25" stroke="black" stroke-width="1.2" fill="#d1d1d1" />
<path d="M126.3,100.0 L137.7,100.0 L133.9,110.0 L130.1,110.0 L126.3,100.0 Z" stroke="black" stroke-width="1.2" fill="#d1d1d1" />
<rect x="84.3" y="75.0" width="11.4" height="25" stroke="black" stroke-width="1.2" fill="#d1d1d1" />
<path d="M84.3,100.0 L95.7,100.0 L91.89999999999999,110.0 L88.1,110.0 L84.3,100.0 Z" stroke="black" stroke-width="1.2" fill="#d1d1d1" />
<rect x="42.3" y="75.0" width="11.4" height="25" stroke="black" stroke-width="1.2" fill="#d1d1d1" />
<path d="M42.3,100.0 L53.699999999999996,100.0 L49.9,110.0 L46.099999999999994,110.0 L42.3,100.0 Z" stroke="black" stroke-width="1.2" fill="#d1d1d1" />
<rect x="21.0" y="21.0" width="180.0" height="54" stroke="black" stroke-width="2" fill="#f5f5f5" rx="3.0" />
<circle cx="174.0" cy="21.0" r="3.0" stroke-dasharray="9.42477796076938 9.42477796076938" stroke-dashoffset="-9.42477796076938" stroke="black" stroke-width="2" stroke-linecap="square" fill="#f5f5f5" />
<rect x="155.5" y="29.5" width="37" height="37" stroke="black" stroke-width="2" fill="#d1d1d1" />
<text x="174.0" y="48.0" font-size="14" font-family="arial" font-weight="bold" text-anchor="middle" dominant-baseline="central">1</text>
<rect x="113.5" y="29.5" width="37" height="37" stroke="black" stroke-width="2" fill="#d1d1d1" />
<text x="132.0" y="48.0" font-size="14" font-family="arial" font-weight="bold" text-anchor="middle" dominant-baseline="central">2</text>
<path d="M71.5,29.5 L108.5,29.5 L108.5,57.25 L99.25,66.5 L80.75,66.5 L71.5,57.25 L71.5,29.5 Z" stroke="black" stroke-width="2" fill="#d1d1d1" />
<text x="90.0" y="48.0" font-size="14" font-family="arial" font-weight="bold" text-anchor="middle" dominant-baseline="central">3</text>
<rect x="29.5" y="29.5" width="37" height="37" stroke="black" stroke-width="2" fill="#d1d1d1" />
<text x="48.0" y="48.0" font-size="14" font-family="arial" font-weight="bold" text-anchor="middle" dominant-baseline="central">4</text>
<rect x="94.0" y="7.0" width="34" height="14" stroke="black" stroke-width="2" fill="#f5f5f5" />
</svg>