<?xml version="1.0" encoding="UTF-8"?>
<svg xmlns="http://www.w3.org/2000/svg" xmlns:xlink="http://www.w3.org/1999/xlink"
     width="5160.0" height="1380.0" viewBox="0 0 516.0 138.0">
<defs>
</defs>
<rect x="0" y="0" width="516.0" height="138.0" stroke="None" stroke-width="0" fill="#ffffff" />
<rect x="21.0" y="113.0" width="8" height="8" stroke="black" stroke-width="1.2" fill="#f5f5f5" />
<rect x="487.0" y="113.0" width="8" height="8" stroke="black" stroke-width="1.2" fill="#f5f5f5" />
<rect x="21.0" y="21.0" width="474.0" height="96" stroke="black" stroke-width="2" fill="#f5f5f5" rx="3.0" />
<circle cx="495.0" cy="90.0" r="3.0" stroke-dasharray="9.42477796076938 9.42477796076938" stroke-dashoffset="-14.137166941154069" stroke="black" stroke-width="2" stroke-linecap="square" fill="#f5f5f5" />
<rect x="449.5" y="71.5" width="37" height="37" stroke="black" stroke-width="2" fill="#d1d1d1" />
<text x="468.0" y="90.0" font-size="14" font-family="arial" font-weight="bold" text-anchor="middle" dominant-baseline="central">1</text>
<path d="M407.5,71.5 L444.5,71.5 L444.5,99.25 L435.25,108.5 L416.75,108.5 L407.5,99.25 L407.5,71.5 Z" stroke="black" stroke-width="2" fill="#d1d1d1" />
<text x="426.0" y="90.0" font-size="14" font-family="arial" font-weight="bold" text-anchor="middle" dominant-baseline="central">2</text>
<path d="M365.5,71.5 L402.5,71.5 L402.5,99.25 L393.25,108.5 L374.75,108.5 L365.5,99.25 L365.5,71.5 Z" stroke="black" stroke-width="2" fill="#d1d1d1" />
<text x="384.0" y="90.0" font-size="14" font-family="arial" font-weight="bold" text-anchor="middle" dominant-baseline="central">3</text>
<rect x="323.5" y="71.5" width="37" height="37" stroke="black" stroke-width="2" fill="#d1d1d1" />
<text x="342.0" y="90.0" font-size="14" font-family="arial" font-weight="bold" text-anchor="middle" dominant-baseline="central">4</text>
<rect x="281.5" y="71.5" width="37" height="37" stroke="black" stroke-width="2" fill="#d1d1d1" />
<text x="300.0" y="90.0" font-size="14" font-family="arial" font-weight="bold" text-anchor="middle" dominant-baseline="central">5</text>
<path d="M239.5,71.5 L276.5,71.5 L276.5,99.25 L267.25,108.5 L248.75,108.5 L239.5,99.25 L239.5,71.5 Z" stroke="black" stroke-width="2" fill="#d1d1d1" />
<text x="258.0" y="90.0" font-size="14" font-family="arial" font-weight="bold" text-anchor="middle" dominant-baseline="central">6</text>
<path d="M197.5,71.5 L234.5,71.5 L234.5,99.25 L225.25,108.5 L206.75,108.5 L197.5,99.25 L197.5,71.5 Z" stroke="black" stroke-width="2" fill="#d1d1d1" />
<text x="216.0" y="90.0" font-size="14" font-family="arial" font-weight="bold" text-anchor="middle" dominant-baseline="central">7</text>
<rect x="155.5" y="71.5" width="37" height="37" stroke="black" stroke-width="2" fill="#d1d1d1" />
<text x="174.0" y="90.0" font-size="14" font-family="arial" font-weight="bold" text-anchor="middle" dominant-baseline="central">8</text>
<rect x="113.5" y="71.5" width="37" height="37" stroke="black" stroke-width="2" fill="#d1d1d1" />
<text x="132.0" y="90.0" font-size="14" font-family="arial" font-weight="bold" text-anchor="middle" dominant-baseline="central">9</text>
<path d="M71.5,71.5 L108.5,71.5 L108.5,99.25 L99.25,108.5 L80.75,108.5 L71.5,99.25 L71.5,71.5 Z" stroke="black" stroke-width="2" fill="#d1d1d1" />
<text x="90.0" y="90.0" font-size="14" font-family="arial" font-weight="bold" text-anchor="middle" dominant-baseline="central">10</text>
<path d="M29.5,71.5 L66.5,71.5 L66.5,99.25 L57.25,108.5 L38.75,108.5 L29.5,99.25 L29.5,71.5 Z" stroke="black" stroke-width="2" fill="#d1d1d1" />
<text x="48.0" y="90.0" font-size="14" font-family="arial" font-weight="bold" text-anchor="middle" dominant-baseline="central">11</text>
<path d="M449.5,29.5 L486.5,29.5 L486.5,57.25 L477.25,66.5 L458.75,66.5 L449.5,57.25 L449.5,29.5 Z" stroke="black" stroke-width="2" fill="#d1d1d1" />
<text x="468.0" y="48.0" font-size="14" font-family="arial" font-weight="bold" text-anchor="middle" dominant-baseline="central">12</text>
<rect x="407.5" y="29.5" width="37" height="37" stroke="black" stroke-width="2" fill="#d1d1d1" />
<text x="426.0" y="48.0" font-size="14" font-family="arial" font-weight="bold" text-anchor="middle" dominant-baseline="central">13</text>
<rect x="365.5" y="29.5" width="37" height="37" stroke="black" stroke-width="2" fill="#d1d1d1" />
<text x="384.0" y="48.0" font-size="14" font-family="arial" font-weight="bold" text-anchor="middle" dominant-baseline="central">14</text>
<path d="M323.5,29.5 L360.5,29.5 L360.5,57.25 L351.25,66.5 L332.75,66.5 L323.5,57.25 L323.5,29.5 Z" stroke="black" stroke-width="2" fill="#d1d1d1" />
<text x="342.0" y="48.0" font-size="14" font-family="arial" font-weight="bold" text-anchor="middle" dominant-baseline="central">15</text>
<path d="M281.5,29.5 L318.5,29.5 L318.5,57.25 L309.25,66.5 L290.75,66.5 L281.5,57.25 L281.5,29.5 Z" stroke="black" stroke-width="2" fill="#d1d1d1" />
<text x="300.0" y="48.0" font-size="14" font-family="arial" font-weight="bold" text-anchor="middle" dominant-baseline="central">16</text>
<rect x="239.5" y="29.5" width="37" height="37" stroke="black" stroke-width="2" fill="#d1d1d1" />
<text x="258.0" y="48.0" font-size="14" font-family="arial" font-weight="bold" text-anchor="middle" dominant-baseline="central">17</text>
<rect x="197.5" y="29.5" width="37" height="37" stroke="black" stroke-width="2" fill="#d1d1d1" />
<text x="216.0" y="48.0" font-size="14" font-family="arial" font-weight="bold" text-anchor="middle" dominant-baseline="central">18</text>
<path d="M155.5,29.5 L192.5,29.5 L192.5,57.25 L183.25,66.5 L164.75,66.5 L155.5,57.25 L155.5,29.5 Z" stroke="black" stroke-width="2" fill="#d1d1d1" />
<text x="174.0" y="48.0" font-size="14" font-family="arial" font-weight="bold" text-anchor="middle" dominant-baseline="central">19</text>
<path d="M113.5,29.5 L150.5,29.5 L150.5,57.25 L141.25,66.5 L122.75,66.5 L113.5,57.25 L113.5,29.5 Z" stroke="black" stroke-width="2" fill="#d1d1d1" />
<text x="132.0" y="48.0" font-size="14" font-family="arial" font-weight="bold" text-anchor="middle" dominant-baseline="central">20</text>
<rect x="71.5" y="29.5" width="37" height="37" stroke="black" stroke-width="2" fill="#d1d1d1" />
<text x="90.0" y="48.0" font-size="14" font-family="arial" font-weight="bold" text-anchor="middle" dominant-baseline="central">21</text>
<rect x="29.5" y="29.5" width="37" height="37" stroke="black" stroke-width="2" fill="#d1d1d1" />
<text x="48.0" y="48.0" font-size="14" font-family="arial" font-weight="bold" text-anchor="middle" dominant-baseline="central">22</text>
<rect x="241.0" y="7.0" width="34" height="14" stroke="black" stroke-width="2" fill="#f5f5f5" />
</svg>