<?xml version="1.0" encoding="UTF-8"?>
<svg xmlns="http://www.w3.org/2000/svg" xmlns:xlink="http://www.w3.org/1999/xlink"
     width="2640.0" height="1380.0" viewBox="0 0 264.0 138.0">
<defs>
</defs>
<rect x="0" y="0" width="264.0" height="138.0" stroke="None" stroke-width="0" fill="#ffffff" />
<rect x="21.0" y="113.0" width="8" height="8" stroke="black" stroke-width="1.2" fill="#f5f5f5" />
<rect x="235.0" y="113.0" width="8" height="8" stroke="black" stroke-width="1.2" fill="#f5f5f5" />
<rect x="21.0" y="21.0" width="222.0" height="96" stroke="black" stroke-width="2" fill="#f5f5f5" rx="3.0" />
<circle cx="243.0" cy="90.0" r="3.0" stroke-dasharray="9.42477796076938 9.42477796076938" stroke-dashoffset="-14.137166941154069" stroke="black" stroke-width="2" stroke-linecap="square" fill="#f5f5f5" />
<rect x="197.5" y="71.5" width="37" height="37" stroke="black" stroke-width="2" fill="#d1d1d1" />
<text x="216.0" y="90.0" font-size="14" font-family="arial" font-weight="bold" text-anchor="middle" dominant-baseline="central">1</text>
<path d="M155.5,71.5 L192.5,71.5 L192.5,99.25 L183.25,108.5 L164.75,108.5 L155.5,99.25 L155.5,71.5 Z" stroke="black" stroke-width="2" fill="#d1d1d1" />
<text x="174.0" y="90.0" font-size="14" font-family="arial" font-weight="bold" text-anchor="middle" dominant-baseline="central">2</text>
<path d="M113.5,71.5 L150.5,71.5 L150.5,99.25 L141.25,108.5 L122.75,108.5 L113.5,99.25 L113.5,71.5 Z" stroke="black" stroke-width="2" fill="#d1d1d1" />
<text x="132.0" y="90.0" font-size="14" font-family="arial" font-weight="bold" text-anchor="middle" dominant-baseline="central">3</text>
<rect x="71.5" y="71.5" width="37" height="37" stroke="black" stroke-width="2" fill="#d1d1d1" />
<text x="90.0" y="90.0" font-size="14" font-family="arial" font-weight="bold" text-anchor="middle" dominant-baseline="central">4</text>
<rect x="29.5" y="71.5" width="37" height="37" stroke="black" stroke-width="2" fill="#d1d1d1" />
<text x="48.0" y="90.0" font-size="14" font-family="arial" font-weight="bold" text-anchor="middle" dominant-baseline="central">5</text>
<path d="M197.5,29.5 L234.5,29.5 L234.5,57.25 L225.25,66.5 L206.75,66.5 L197.5,57.25 L197.5,29.5 Z" stroke="black" stroke-width="2" fill="#d1d1d1" />
<text x="216.0" y="48.0" font-size="14" font-family="arial" font-weight="bold" text-anchor="middle" dominant-baseline="central">6</text>
<rect x="155.5" y="29.5" width="37" height="37" stroke="black" stroke-width="2" fill="#d1d1d1" />
<text x="174.0" y="48.0" font-size="14" font-family="arial" font-weight="bold" text-anchor="middle" dominant-baseline="central">7</text>
<rect x="113.5" y="29.5" width="37" height="37" stroke="black" stroke-width="2" fill="#d1d1d1" />
<text x="132.0" y="48.0" font-size="14" font-family="arial" font-weight="bold" text-anchor="middle" dominant-baseline="central">8</text>
<path d="M71.5,29.5 L108.5,29.5 L108.5,57.25 L99.25,66.5 L80.75,66.5 L71.5,57.25 L71.5,29.5 Z" stroke="black" stroke-width="2" fill="#d1d1d1" />
<text x="90.0" y="48.0" font-size="14" font-family="arial" font-weight="bold" text-anchor="middle" dominant-baseline="central">9</text>
<path d="M29.5,29.5 L66.5,29.5 L66.5,57.25 L57.25,66.5 L38.75,66.5 L29.5,57.25 L29.5,29.5 Z" stroke="black" stroke-width="2" fill="#d1d1d1" />
<text x="48.0" y="48.0" font-size="14" font-family="arial" font-weight="bold" text-anchor="middle" dominant-baseline="central">10</text>
<rect x="115.0" y="7.0" width="34" height="14" stroke="black" stroke-width="2" fill="#f5f5f5" />
</svg>