<?xml version="1.0" encoding="UTF-8"?>
<svg xmlns="http://www.w3.org/2000/svg" xmlns:xlink="http://www.w3.org/1999/xlink"
     width="5580.0" height="1625.0" viewBox="0 0 558.0 162.5">
<defs>
</defs>
<rect x="0" y="0" width="558.0" height="162.5" stroke="None" stroke-width="0" fill="#ffffff" />
<rect x="21.0" y="113.0" width="8" height="8" stroke="black" stroke-width="1.2" fill="#f5f5f5" />
<rect x="529.0" y="113.0" width="8" height="8" stroke="black" stroke-width="1.2" fill="#f5f5f5" />
<circle cx="537.0" cy="30.0" r="3.0" stroke-dasharray="9.42477796076938 9.42477796076938" stroke-dashoffset="-14.137166941154069" stroke="black" stroke-width="1.2" fill="#f5f5f5" />
<rect x="504.3" y="117.0" width="11.4" height="25" stroke="black" stroke-width="1.2" fill="#d1d1d1" />
<path d="M504.3,142.0 L515.7,142.0 L511.90000000000003,152.0 L508.1,152.0 L504.3,142.0 Z" stroke="black" stroke-width="1.2" fill="#d1d1d1" />
<rect x="462.3" y="117.0" width="11.4" height="25" stroke="black" stroke-width="1.2" fill="#d1d1d1" />
<path d="M462.3,142.0 L473.7,142.0 L469.90000000000003,152.0 L466.1,152.0 L462.3,142.0 Z" stroke="black" stroke-width="1.2" fill="#d1d1d1" />
<rect x="420.3" y="117.0" width="11.4" height="25" stroke="black" stroke-width="1.2" fill="#d1d1d1" />
<path d="M420.3,142.0 L431.7,142.0 L427.90000000000003,152.0 L424.1,152.0 L420.3,142.0 Z" stroke="black" stroke-width="1.2" fill="#d1d1d1" />
<rect x="378.3" y="117.0" width="11.4" height="25" stroke="black" stroke-width="1.2" fill="#d1d1d1" />
<path d="M378.3,142.0 L389.7,142.0 L385.90000000000003,152.0 L382.1,152.0 L378.3,142.0 Z" stroke="black" stroke-width="1.2" fill="#d1d1d1" />
<rect x="336.3" y="117.0" width="11.4" height="25" stroke="black" stroke-width="1.2" fill="#d1d1d1" />
<path d="M336.3,142.0 L347.7,142.0 L343.90000000000003,152.0 L340.1,152.0 L336.3,142.0 Z" stroke="black" stroke-width="1.2" fill="#d1d1d1" />
<rect x="294.3" y="117.0" width="11.4" height="25" stroke="black" stroke-width="1.2" fill="#d1d1d1" />
<path d="M294.3,142.0 L305.7,142.0 L301.90000000000003,152.0 L298.1,152.0 L294.3,142.0 Z" stroke="black" stroke-width="1.2" fill="#d1d1d1" />
<rect x="252.3" y="117.0" width="11.4" height="25" stroke="black" stroke-width="1.2" fill="#d1d1d1" />
<path d="M252.3,142.0 L263.7,142.0 L259.90000000000003,152.0 L256.1,152.0 L252.3,142.0 Z" stroke="black" stroke-width="1.2" fill="#d1d1d1" />
<rect x="210.3" y="117.0" width="11.4" height="25" stroke="black" stroke-width="1.2" fill="#d1d1d1" />
<path d="M210.3,142.0 L221.70000000000002,142.0 L217.9,152.0 L214.10000000000002,152.0 L210.3,142.0 Z" stroke="black" stroke-width="1.2" fill="#d1d1d1" />
<rect x="168.3" y="117.0" width="11.4" height="25" stroke="black" stroke-width="1.2" fill="#d1d1d1" />
<path d="M168.3,142.0 L179.70000000000002,142.0 L175.9,152.0 L172.10000000000002,152.0 L168.3,142.0 Z" stroke="black" stroke-width="1.2" fill="#d1d1d1" />
<rect x="126.3" y="117.0" width="11.4" height="25" stroke="black" stroke-width="1.2" fill="#d1d1d1" />
<path d="M126.3,142.0 L137.7,142.0 L133.9,152.0 L130.1,152.0 L126.3,142.0 Z" stroke="black" stroke-width="1.2" fill="#d1d1d1" />
<rect x="84.3" y="117.0" width="11.4" height="25" stroke="black" stroke-width="1.2" fill="#d1d1d1" />
<path d="M84.3,142.0 L95.7,142.0 L91.89999999999999,152.0 L88.1,152.0 L84.3,142.0 Z" stroke="black" stroke-width="1.2" fill="#d1d1d1" />
<rect x="42.3" y="117.0" width="11.4" height="25" stroke="black" stroke-width="1.2" fill="#d1d1d1" />
<path d="M42.3,142.0 L53.699999999999996,142.0 L49.9,152.0 L46.099999999999994,152.0 L42.3,142.0 Z" stroke="black" stroke-width="1.2" fill="#d1d1d1" />
<rect x="21.0" y="21.0" width="516.0" height="96" stroke="black" stroke-width="2" fill="#f5f5f5" rx="3.0" />
<circle cx="537.0" cy="90.0" r="3.0" stroke-dasharray="9.42477796076938 9.42477796076938" stroke-dashoffset="-14.137166941154069" stroke="black" stroke-width="2" stroke-linecap="square" fill="#f5f5f5" />
<rect x="491.5" y="71.5" width="37" height="37" stroke="black" stroke-width="2" fill="#d1d1d1" />
<text x="510.0" y="90.0" font-size="14" font-family="arial" font-weight="bold" text-anchor="middle" dominant-baseline="central">1</text>
<path d="M449.5,71.5 L486.5,71.5 L486.5,99.25 L477.25,108.5 L458.75,108.5 L449.5,99.25 L449.5,71.5 Z" stroke="black" stroke-width="2" fill="#d1d1d1" />
<text x="468.0" y="90.0" font-size="14" font-family="arial" font-weight="bold" text-anchor="middle" dominant-baseline="central">2</text>
<path d="M407.5,71.5 L444.5,71.5 L444.5,99.25 L435.25,108.5 L416.75,108.5 L407.5,99.25 L407.5,71.5 Z" stroke="black" stroke-width="2" fill="#d1d1d1" />
<text x="426.0" y="90.0" font-size="14" font-family="arial" font-weight="bold" text-anchor="middle" dominant-baseline="central">3</text>
<rect x="365.5" y="71.5" width="37" height="37" stroke="black" stroke-width="2" fill="#d1d1d1" />
<text x="384.0" y="90.0" font-size="14" font-family="arial" font-weight="bold" text-anchor="middle" dominant-baseline="central">4</text>
<rect x="323.5" y="71.5" width="37" height="37" stroke="black" stroke-width="2" fill="#d1d1d1" />
<text x="342.0" y="90.0" font-size="14" font-family="arial" font-weight="bold" text-anchor="middle" dominant-baseline="central">5</text>
<path d="M281.5,71.5 L318.5,71.5 L318.5,99.25 L309.25,108.5 L290.75,108.5 L281.5,99.25 L281.5,71.5 Z" stroke="black" stroke-width="2" fill="#d1d1d1" />
<text x="300.0" y="90.0" font-size="14" font-family="arial" font-weight="bold" text-anchor="middle" dominant-baseline="central">6</text>
<path d="M239.5,71.5 L276.5,71.5 L276.5,99.25 L267.25,108.5 L248.75,108.5 L239.5,99.25 L239.5,71.5 Z" stroke="black" stroke-width="2" fill="#d1d1d1" />
<text x="258.0" y="90.0" font-size="14" font-family="arial" font-weight="bold" text-anchor="middle" dominant-baseline="central">7</text>
<rect x="197.5" y="71.5" width="37" height="37" stroke="black" stroke-width="2" fill="#d1d1d1" />
<text x="216.0" y="90.0" font-size="14" font-family="arial" font-weight="bold" text-anchor="middle" dominant-baseline="central">8</text>
<rect x="155.5" y="71.5" width="37" height="37" stroke="black" stroke-width="2" fill="#d1d1d1" />
<text x="174.0" y="90.0" font-size="14" font-family="arial" font-weight="bold" text-anchor="middle" dominant-baseline="central">9</text>
<path d="M113.5,71.5 L150.5,71.5 L150.5,99.25 L141.25,108.5 L122.75,108.5 L113.5,99.25 L113.5,71.5 Z" stroke="black" stroke-width="2" fill="#d1d1d1" />
<text x="132.0" y="90.0" font-size="14" font-family="arial" font-weight="bold" text-anchor="middle" dominant-baseline="central">10</text>
<path d="M71.5,71.5 L108.5,71.5 L108.5,99.25 L99.25,108.5 L80.75,108.5 L71.5,99.25 L71.5,71.5 Z" stroke="black" stroke-width="2" fill="#d1d1d1" />
<text x="90.0" y="90.0" font-size="14" font-family="arial" font-weight="bold" text-anchor="middle" dominant-baseline="central">11</text>
<rect x="29.5" y="71.5" width="37" height="37" stroke="black" stroke-width="2" fill="#d1d1d1" />
<text x="48.0" y="90.0" font-size="14" font-family="arial" font-weight="bold" text-anchor="middle" dominant-baseline="central">12</text>
<path d="M491.5,29.5 L528.5,29.5 L528.5,57.25 L519.25,66.5 L500.75,66.5 L491.5,57.25 L491.5,29.5 Z" stroke="black" stroke-width="2" fill="#d1d1d1" />
<text x="510.0" y="48.0" font-size="14" font-family="arial" font-weight="bold" text-anchor="middle" dominant-baseline="central">13</text>
<rect x="449.5" y="29.5" width="37" height="37" stroke="black" stroke-width="2" fill="#d1d1d1" />
<text x="468.0" y="48.0" font-size="14" font-family="arial" font-weight="bold" text-anchor="middle" dominant-baseline="central">14</text>
<rect x="407.5" y="29.5" width="37" height="37" stroke="black" stroke-width="2" fill="#d1d1d1" />
<text x="426.0" y="48.0" font-size="14" font-family="arial" font-weight="bold" text-anchor="middle" dominant-baseline="central">15</text>
<path d="M365.5,29.5 L402.5,29.5 L402.5,57.25 L393.25,66.5 L374.75,66.5 L365.5,57.25 L365.5,29.5 Z" stroke="black" stroke-width="2" fill="#d1d1d1" />
<text x="384.0" y="48.0" font-size="14" font-family="arial" font-weight="bold" text-anchor="middle" dominant-baseline="central">16</text>
<path d="M323.5,29.5 L360.5,29.5 L360.5,57.25 L351.25,66.5 L332.75,66.5 L323.5,57.25 L323.5,29.5 Z" stroke="black" stroke-width="2" fill="#d1d1d1" />
<text x="342.0" y="48.0" font-size="14" font-family="arial" font-weight="bold" text-anchor="middle" dominant-baseline="central">17</text>
<rect x="281.5" y="29.5" width="37" height="37" stroke="black" stroke-width="2" fill="#d1d1d1" />
<text x="300.0" y="48.0" font-size="14" font-family="arial" font-weight="bold" text-anchor="middle" dominant-baseline="central">18</text>
<rect x="239.5" y="29.5" width="37" height="37" stroke="black" stroke-width="2" fill="#d1d1d1" />
<text x="258.0" y="48.0" font-size="14" font-family="arial" font-weight="bold" text-anchor="middle" dominant-baseline="central">19</text>
<path d="M197.5,29.5 L234.5,29.5 L234.5,57.25 L225.25,66.5 L206.75,66.5 L197.5,57.25 L197.5,29.5 Z" stroke="black" stroke-width="2" fill="#d1d1d1" />
<text x="216.0" y="48.0" font-size="14" font-family="arial" font-weight="bold" text-anchor="middle" dominant-baseline="central">20</text>
<path d="M155.5,29.5 L192.5,29.5 L192.5,57.25 L183.25,66.5 L164.75,66.5 L155.5,57.25 L155.5,29.5 Z" stroke="black" stroke-width="2" fill="#d1d1d1" />
<text x="174.0" y="48.0" font-size="14" font-family="arial" font-weight="bold" text-anchor="middle" dominant-baseline="central">21</text>
<rect x="113.5" y="29.5" width="37" height="37" stroke="black" stroke-width="2" fill="#d1d1d1" />
<text x="132.0" y="48.0" font-size="14" font-family="arial" font-weight="bold" text-anchor="middle" dominant-baseline="central">22</text>
<rect x="71.5" y="29.5" width="37" height="37" stroke="black" stroke-width="2" fill="#d1d1d1" />
<text x="90.0" y="48.0" font-size="14" font-family="arial" font-weight="bold" text-anchor="middle" dominant-baseline="central">23</text>
<path d="M29.5,29.5 L66.5,29.5 L66.5,57.25 L57.25,66.5 L38.75,66.5 L29.5,57.25 L29.5,29.5 Z" stroke="black" stroke-width="2" fill="#d1d1d1" />
<text x="48.0" y="48.0" font-size="14" font-family="arial" font-weight="bold" text-anchor="middle" dominant-baseline="central">24</text>
<rect x="262.0" y="7.0" width="34" height="14" stroke="black" stroke-width="2" fill="#f5f5f5" />
</svg>